<svg width="16" height="16" viewBox="0 0 16 16" fill="none" xmlns="http://www.w3.org/2000/svg">
<path fill-rule="evenodd" clip-rule="evenodd" d="M5.5 2V3H10.5V2C10.5 1.72386 10.2761 1.5 10 1.5H6C5.72386 1.5 5.5 1.72386 5.5 2ZM4 2V3H1C0.447717 3 0 3.44772 0 4V15C0 15.5523 0.447715 16 1 16H15C15.5523 16 16 15.5523 16 15V4C16 3.44772 15.5523 3 15 3H12V2C12 0.895431 11.1046 0 10 0H6C4.89543 0 4 0.89543 4 2ZM10.5 4.5H12H14.5V7.36286L8.06868 9.20037C8.02379 9.21319 7.97621 9.21319 7.93132 9.20037L1.5 7.36284V4.5H4H5.5H10.5ZM1.5 8.92287V14.5H14.5V8.92288L8.48076 10.6427C8.16654 10.7324 7.83346 10.7324 7.51924 10.6427L1.5 8.92287Z" fill="#181A1F"/>
</svg>
