<svg width="16" height="16" viewBox="0 0 16 16" fill="none" xmlns="http://www.w3.org/2000/svg">
<path fill-rule="evenodd" clip-rule="evenodd" d="M13.8787 4.00008L8.37862 9.50008H6.49997V7.62141L12 2.12141L13.8787 4.00008ZM8.58573 11.0001H5.99997C5.44768 11.0001 4.99997 10.5524 4.99997 10.0001V7.4143C4.99997 7.14908 5.10533 6.89472 5.29286 6.70719L11.2929 0.707198C11.6834 0.316676 12.3166 0.316677 12.7071 0.707199L15.2929 3.29297C15.6834 3.6835 15.6834 4.31667 15.2929 4.70719L9.29283 10.7072C9.1053 10.8947 8.85094 11.0001 8.58573 11.0001ZM5.25 2.00009C5.66421 2.00009 6 2.33588 6 2.75009C6 3.1643 5.66421 3.50009 5.25 3.50009H2C1.72386 3.50009 1.5 3.72395 1.5 4.00009V14.0001C1.5 14.2762 1.72386 14.5001 2 14.5001H12C12.2761 14.5001 12.5 14.2762 12.5 14.0001V10.7501C12.5 10.3359 12.8358 10.0001 13.25 10.0001C13.6642 10.0001 14 10.3359 14 10.7501V14.0001C14 15.1047 13.1046 16.0001 12 16.0001H2C0.895431 16.0001 0 15.1047 0 14.0001V4.00009C0 2.89552 0.895432 2.00009 2 2.00009H5.25Z" fill="white"/>
</svg>
