<svg width="16" height="17" viewBox="0 0 16 17" fill="none" xmlns="http://www.w3.org/2000/svg">
<path fill-rule="evenodd" clip-rule="evenodd" d="M15.9532 8.28182C15.118 6.47091 13.9551 5.02364 12.5893 4.03455C11.2234 3.03818 9.65463 2.5 8 2.5H7.9922C4.69073 2.5 1.71707 4.66 0.0468293 8.28182C-0.0156098 8.42 -0.0156098 8.58 0.0468293 8.71091C1.71707 12.3327 4.69073 14.5 7.9922 14.5H8C11.3093 14.5 14.2829 12.3327 15.9532 8.71091C16.0156 8.58 16.0156 8.42 15.9532 8.28182ZM8.00501 12.5C5.79224 12.5 4 10.7078 4 8.50501C4 6.29224 5.79224 4.5 8.00501 4.5C10.2078 4.5 12 6.29224 12 8.50501C12 10.7078 10.2078 12.5 8.00501 12.5ZM8 10.5C9.10457 10.5 10 9.60457 10 8.5C10 7.39543 9.10457 6.5 8 6.5C6.89543 6.5 6 7.39543 6 8.5C6 9.60457 6.89543 10.5 8 10.5Z" fill="#8A92A0"/>
</svg>
