<svg width="16" height="16" viewBox="0 0 16 16" fill="none" xmlns="http://www.w3.org/2000/svg">
<path fill-rule="evenodd" clip-rule="evenodd" d="M2.5 3V13C2.5 13.2761 2.72386 13.5 3 13.5H7C7.27614 13.5 7.5 13.2761 7.5 13V11.75C7.5 11.3358 7.83579 11 8.25 11C8.66421 11 9 11.3358 9 11.75V13C9 14.1046 8.10457 15 7 15H3C1.89543 15 1 14.1046 1 13V3C1 1.89543 1.89543 1 3 1H7C8.10457 1 9 1.89543 9 3V4.25C9 4.66421 8.66421 5 8.25 5C7.83579 5 7.5 4.66421 7.5 4.25V3C7.5 2.72386 7.27614 2.5 7 2.5H3C2.72386 2.5 2.5 2.72386 2.5 3ZM15.5303 8.53033C15.8232 8.23744 15.8232 7.76256 15.5303 7.46967L12.5303 4.46967C12.2374 4.17678 11.7626 4.17678 11.4697 4.46967C11.1768 4.76256 11.1768 5.23744 11.4697 5.53033L13.1893 7.25L5 7.25C4.58579 7.25 4.25 7.58579 4.25 8C4.25 8.41421 4.58579 8.75 5 8.75L13.1893 8.75L11.4697 10.4697C11.1768 10.7626 11.1768 11.2374 11.4697 11.5303C11.7626 11.8232 12.2374 11.8232 12.5303 11.5303L15.5303 8.53033Z" fill="#181A1F"/>
</svg>
