<svg width="16" height="16" viewBox="0 0 16 16" fill="none" xmlns="http://www.w3.org/2000/svg">
<path fill-rule="evenodd" clip-rule="evenodd" d="M13.5 14.5H2.5V1.5H13.5V14.5ZM1 1V15C1 15.5523 1.44772 16 2 16H14C14.5523 16 15 15.5523 15 15V1C15 0.447715 14.5523 0 14 0H2C1.44772 0 1 0.447715 1 1ZM4 3.75C4 4.16421 4.33579 4.5 4.75 4.5L11.25 4.5C11.6642 4.5 12 4.16421 12 3.75C12 3.33579 11.6642 3 11.25 3L4.75 3C4.33579 3 4 3.33579 4 3.75ZM4.75 8.5C4.33579 8.5 4 8.16422 4 7.75C4 7.33579 4.33579 7 4.75 7L11.25 7C11.6642 7 12 7.33579 12 7.75C12 8.16422 11.6642 8.5 11.25 8.5L4.75 8.5ZM4 11.75C4 12.1642 4.33579 12.5 4.75 12.5L11.25 12.5C11.6642 12.5 12 12.1642 12 11.75C12 11.3358 11.6642 11 11.25 11L4.75 11C4.33579 11 4 11.3358 4 11.75Z" fill="#181A1F"/>
</svg>
