<svg width="16" height="16" viewBox="0 0 16 16" fill="none" xmlns="http://www.w3.org/2000/svg">
<path fill-rule="evenodd" clip-rule="evenodd" d="M7.05055 2.05065L9.70711 4.7072C9.89464 4.89474 10 5.14909 10 5.41431V13.0429L14.2999 11.6096C14.4323 11.5654 14.5029 11.4215 14.4568 11.2898L11.4929 2.8215C11.462 2.7334 11.3847 2.66981 11.2923 2.6566L7.05055 2.05065ZM10 14.624V15.0001C10 15.5524 9.55228 16.0001 9 16.0001H1C0.447715 16.0001 0 15.5524 0 15.0001V5.41431C0 5.14909 0.105357 4.89474 0.292893 4.7072L4.29289 0.707201C4.30238 0.697711 4.31202 0.688452 4.32179 0.679424C4.45861 0.389793 4.77235 0.209961 5.10606 0.257633L11.5044 1.17168C12.1513 1.26409 12.6928 1.70921 12.9087 2.32598L15.8726 10.7943C16.1952 11.7162 15.7008 12.7237 14.7742 13.0326L10 14.624ZM1.5 14.5001V5.62141L5 2.12142L8.5 5.62142V14.5001H1.5ZM3.75 12.5001C3.33579 12.5001 3 12.1643 3 11.7501C3 11.3359 3.33579 11.0001 3.75 11.0001L6.25 11.0001C6.66421 11.0001 7 11.3359 7 11.7501C7 12.1643 6.66421 12.5001 6.25 12.5001L3.75 12.5001ZM5 7.00009C5.55228 7.00009 6 6.55238 6 6.00009C6 5.44781 5.55228 5.00009 5 5.00009C4.44772 5.00009 4 5.44781 4 6.00009C4 6.55238 4.44772 7.00009 5 7.00009Z" fill="#181A1F"/>
</svg>
