<svg width="16" height="16" viewBox="0 0 16 16" fill="none" xmlns="http://www.w3.org/2000/svg">
<path fill-rule="evenodd" clip-rule="evenodd" d="M3.93934 10.9393C4.22064 10.658 4.60218 10.5 5 10.5H10C11.933 10.5 13.5 8.933 13.5 7V6C13.5 4.067 11.933 2.5 10 2.5H6C4.067 2.5 2.5 4.067 2.5 6V12.3787L3.93934 10.9393ZM2.70711 14.2929L5 12H10C12.7614 12 15 9.76142 15 7V6C15 3.23858 12.7614 1 10 1H6C3.23858 1 1 3.23858 1 6V13.5858C1 14.4767 2.07714 14.9229 2.70711 14.2929ZM5.75 5.5C5.33579 5.5 5 5.16421 5 4.75C5 4.33579 5.33579 4 5.75 4L10.25 4C10.6642 4 11 4.33579 11 4.75C11 5.16421 10.6642 5.5 10.25 5.5L5.75 5.5ZM5 7.75C5 8.16422 5.33579 8.5 5.75 8.5L8.25 8.5C8.66421 8.5 9 8.16422 9 7.75C9 7.33579 8.66421 7 8.25 7L5.75 7C5.33579 7.00001 5 7.33579 5 7.75Z" fill="#181A1F"/>
</svg>
